<?xml version="1.0" standalone="no"?>
<!DOCTYPE svg PUBLIC "-//W3C//DTD SVG 20010904//EN"
 "http://www.w3.org/TR/2001/REC-SVG-20010904/DTD/svg10.dtd">
<svg xmlns="http://www.w3.org/2000/svg" version="1.0" width="201.000000pt" height="214.000000pt" viewBox="0 0 201.000000 214.000000" preserveAspectRatio="xMidYMid meet">

<g transform="translate(0.000000,214.000000) scale(0.100000,-0.100000)" fill="#4a65a7" stroke="none">
<path d="M870 1835 c-69 -13 -160 -26 -202 -30 -80 -7 -103 -20 -95 -52 3 -15 6 -13 15 10 11 25 16 27 65 27 29 0 126 7 214 15 145 14 172 14 264 0 76 -11 106 -12 116 -4 21 18 15 39 -13 49 -44 17 -231 9 -364 -15z" fill="#4a65a7"/>
<path d="M1338 1824 c-37 -20 -36 -29 1 -9 27 13 31 13 45 -1 9 -8 21 -24 26 -34 5 -10 49 -74 97 -142 90 -128 148 -230 178 -310 22 -60 36 -72 60 -54 15 11 16 17 6 47 -18 55 -93 170 -208 318 -106 136 -162 201 -172 201 -4 -1 -18 -8 -33 -16z" fill="#4a65a7"/>
<path d="M1232 1755 c-106 -80 -342 -307 -342 -330 0 -27 60 24 219 185 103 105 186 190 185 190 -1 0 -29 -20 -62 -45z" fill="#4a65a7"/>
<path d="M585 1620 c5 -89 79 -394 110 -448 33 -57 9 80 -44 262 -29 98 -57 200 -62 225 -7 36 -7 28 -4 -39z" fill="#4a65a7"/>
<path d="M498 1673 c-43 -51 -84 -125 -138 -255 -101 -238 -131 -318 -128 -336 7 -36 178 -108 422 -177 95 -27 164 -41 173 -37 26 15 -45 41 -252 91 -200 49 -335 98 -335 123 0 7 49 112 109 233 75 151 124 236 155 272 48 53 54 71 34 91 -16 16 -22 15 -40 -5z" fill="#4a65a7"/>
<path d="M1215 1371 c13 -13 63 -29 139 -46 257 -57 446 -122 446 -153 0 -8 -47 -110 -104 -226 -73 -148 -120 -229 -155 -271 -28 -32 -51 -64 -51 -70 0 -15 21 -35 36 -35 27 0 115 160 184 335 39 99 78 195 86 213 26 60 21 68 -68 113 -94 48 -443 159 -497 159 -35 0 -35 0 -16 -19z" fill="#4a65a7"/>
<path d="M965 1222 c-45 -28 -58 -48 -58 -92 0 -71 42 -111 115 -112 36 0 47 5 80 40 44 48 49 85 16 127 -22 28 -73 55 -105 55 -10 0 -31 -8 -48 -18z" fill="#4a65a7"/>
<path d="M1330 1056 c0 -25 11 -76 25 -113 68 -190 123 -451 98 -466 -14 -9 -319 -31 -423 -31 -47 0 -119 4 -161 8 -67 8 -77 7 -82 -9 -11 -26 -2 -33 61 -46 46 -9 85 -8 212 6 216 24 393 53 402 68 20 32 -1 198 -52 399 -42 170 -57 215 -71 224 -5 3 -9 -15 -9 -40z" fill="#4a65a7"/>
<path d="M291 981 c-35 -22 50 -165 242 -407 86 -108 128 -154 142 -154 31 0 169 106 320 246 130 120 190 193 148 177 -36 -13 -83 -56 -160 -145 -86 -101 -220 -222 -277 -253 l-38 -20 -16 22 c-82 106 -279 427 -294 478 -18 63 -34 76 -67 56z" fill="#4a65a7"/>
</g>
</svg>
