<?xml version="1.0" standalone="no"?>
<!DOCTYPE svg PUBLIC "-//W3C//DTD SVG 20010904//EN"
 "http://www.w3.org/TR/2001/REC-SVG-20010904/DTD/svg10.dtd">
<svg version="1.0" xmlns="http://www.w3.org/2000/svg"
 width="200.000000pt" height="200.000000pt" viewBox="0 0 200.000000 200.000000"
 preserveAspectRatio="xMidYMid meet">
<metadata>
Created by potrace 1.16, written by Peter Selinger 2001-2019
</metadata>
<g transform="translate(0.000000,200.000000) scale(0.100000,-0.100000)"
fill="#000000" stroke="none">
<path d="M880 1779 c-58 -10 -159 -26 -224 -34 -66 -9 -124 -19 -129 -22 -6
-4 -7 -53 -4 -122 5 -93 16 -156 56 -319 28 -112 59 -217 69 -235 l17 -32 3
46 c2 33 -13 101 -58 250 -62 207 -88 337 -77 381 6 24 10 25 129 31 68 4 177
12 243 18 101 10 137 9 227 -5 59 -9 114 -13 122 -10 21 8 26 41 8 56 -25 22
-258 20 -382 -3z"/>
<path d="M1297 1723 c-145 -97 -408 -345 -430 -407 -16 -43 76 34 200 168 122
132 249 246 301 269 30 14 24 20 174 -198 109 -159 174 -273 198 -350 15 -50
36 -68 61 -54 25 13 24 33 -6 98 -32 68 -107 176 -248 356 -107 136 -142 175
-156 175 -4 0 -46 -26 -94 -57z"/>
<path d="M391 1531 c-57 -90 -254 -551 -249 -584 6 -41 175 -114 443 -192 153
-45 208 -55 221 -42 16 16 -74 48 -256 90 -202 47 -341 93 -381 126 l-22 17
118 235 c125 249 137 270 197 336 40 45 46 61 26 81 -26 26 -47 11 -97 -67z"/>
<path d="M1225 1260 c14 -13 75 -32 190 -60 284 -68 429 -116 450 -149 7 -12
-177 -392 -228 -473 -20 -31 -55 -77 -77 -103 -22 -25 -40 -52 -40 -59 0 -17
21 -36 41 -36 17 0 89 100 126 175 41 82 194 477 191 493 -4 22 -112 78 -225
119 -154 55 -361 113 -405 113 -42 0 -42 0 -23 -20z"/>
<path d="M955 1105 c-64 -34 -88 -95 -61 -158 30 -74 127 -100 186 -51 57 48
73 101 46 153 -30 57 -115 85 -171 56z"/>
<path d="M1350 917 c0 -30 9 -80 20 -113 73 -209 120 -400 120 -486 0 -46 9
-43 -210 -60 -200 -15 -330 -15 -430 -1 -82 11 -103 5 -98 -31 4 -27 33 -34
153 -35 93 -1 559 58 585 74 15 9 12 153 -6 246 -37 201 -110 459 -129 459 -3
0 -5 -24 -5 -53z"/>
<path d="M217 839 c-9 -6 -17 -20 -17 -32 0 -27 65 -148 121 -224 97 -133 293
-373 305 -373 16 0 131 77 199 133 94 78 306 282 321 309 20 39 18 41 -24 19
-22 -11 -89 -76 -160 -154 -149 -166 -303 -296 -335 -284 -16 6 -274 391 -310
462 -14 28 -30 69 -36 92 -13 47 -37 67 -64 52z"/>
</g>
</svg>
